<svg xmlns="http://www.w3.org/2000/svg" version="1.1" xmlns:xlink="http://www.w3.org/1999/xlink" xmlns:svgjs="http://svgjs.com/svgjs" width="30px" height="30px" x="0" y="0" viewBox="0 0 100 100" style="enable-background:new 0 0 512 512" xml:space="preserve" class=""><g><g xmlns="http://www.w3.org/2000/svg"><path d="m72.096 62.189c.742 1.713 1.176 3.808 1.271 6.229 2.502.574 4.375 2.813 4.375 5.483 0 3.107-2.525 5.633-5.632 5.633-3.105 0-5.631-2.525-5.631-5.633 0-2.641 1.832-4.856 4.291-5.461-.107-2.407-.685-6.065-3.037-7.873-1.201-.313-2.438-.535-3.707-.651-.092 4.215-14.023 14.616-14.023 14.616s-13.934-10.4-14.028-14.615c-1.408.129-2.777.388-4.101.756-1.718 1.361-2.606 3.896-2.651 7.578.504.29.912.743 1.162 1.292 1.851.875 3.486 2.711 4.738 5.329.209.44.237.938.083 1.394.75 1.932 1.179 4.041 1.179 5.813 0 2.484 0 4.833-2.708 5.436-.293.246-.66.379-1.046.379h-1.808c-.908 0-1.646-.738-1.646-1.646l.001-.064c.035-.873.767-1.58 1.645-1.58h1.808c.187 0 .367.03.541.094.11-.031.145-.059.145-.059.201-.357.201-1.844.201-2.559 0-1.439-.36-3.178-.991-4.794-.328-.187-.594-.468-.755-.808-1.098-2.299-2.589-3.779-3.799-3.779-1.24 0-2.806 1.603-3.898 3.986-.178.391-.491.707-.876.896-.57 1.548-.885 3.14-.885 4.499 0 .602 0 2.191.229 2.564.003 0 .055.031.198.065.189-.071.389-.108.59-.108h1.812c.845 0 1.55.645 1.636 1.479l.01.104c0 .973-.739 1.711-1.646 1.711h-1.812c-.359 0-.708-.121-.994-.34-1.034-.193-1.763-.65-2.227-1.395-.559-.899-.661-2.079-.661-4.08 0-1.756.405-3.777 1.141-5.707-.107-.413-.072-.846.109-1.234.767-1.678 1.742-3.111 2.819-4.15.591-.572 1.23-1.029 1.896-1.366.249-.583.682-1.062 1.211-1.364.027-2.311.383-4.302 1.039-5.945-7.516 3.813-12.668 11.61-12.668 20.619 0 11.508 8.408 12.07 19.417 12.07 1.201 0 2.431-.007 3.689-.007h23.792c1.256 0 2.485.007 3.688.007 11.009 0 19.421-.563 19.421-12.072.001-9.105-5.26-16.974-12.907-20.742z" fill="green" data-original="green" style="" class=""></path><path d="m50.006 17.033c-10.64 0-19.265 8.626-19.265 19.265 0 10.643 8.625 26.644 19.265 26.644 3.155 0 6.131-1.414 8.76-3.67-.113.006-.222.033-.336.033h-3.832c-2.943 0-5.339-2.396-5.339-5.34 0-2.941 2.396-5.333 5.339-5.333h3.832c1.248 0 2.432.433 3.372 1.202 1.56-.202 3.054-.548 4.442-1 1.916-4.21 3.029-8.717 3.029-12.535 0-10.639-8.625-19.266-19.267-19.266z" fill="green" data-original="green" style="" class=""></path><circle cx="72.109" cy="73.904" r="2.599" fill="green" data-original="green" style="" class=""></circle><path d="m60.852 52.4c-.519-.791-1.406-1.317-2.422-1.317h-3.832c-1.597 0-2.887 1.291-2.887 2.882 0 1.594 1.29 2.889 2.887 2.889h3.832c1.117 0 2.067-.64 2.549-1.559 5.34-.422 9.983-2.052 13.246-4.46.746.481 1.633.765 2.59.765h.238c2.663 0 4.815-2.156 4.815-4.821v-9.625c0-1.917-1.123-3.569-2.744-4.339-.709-15.454-13.501-27.815-29.127-27.815-15.627 0-28.421 12.361-29.123 27.814-1.624.77-2.749 2.422-2.749 4.339v9.625c0 2.665 2.157 4.822 4.813 4.822h.243c2.659 0 4.813-2.157 4.813-4.822v-9.625c0-1.889-1.09-3.518-2.677-4.307.685-13.02 11.492-23.399 24.68-23.399 13.187 0 23.995 10.38 24.679 23.399-1.585.79-2.676 2.419-2.676 4.308v9.625c0 .637.123 1.233.343 1.788-2.807 2.009-6.892 3.441-11.491 3.833z" fill="green" data-original="green" style="" class=""></path></g></g></svg>