<svg id="Capa_1" enable-background="new 0 0 512.5 512.5" height="512" viewBox="0 0 512.5 512.5" width="512" xmlns="http://www.w3.org/2000/svg"><g><path d="m275 15.25h-220c-22.091 0-40 17.909-40 40v377h300v-377c0-22.091-17.909-40-40-40z" fill="#f9f9f9" stroke="#f9f9f9" stroke-miterlimit="10"/><g><path d="m315 55.25c0-22.091-17.909-40-40-40h-110v417h150z" fill="#d8f1fb"/></g><path d="m80.77 19.993 20 60c2.042 6.125 7.773 10.257 14.23 10.257h100c6.457 0 12.188-4.131 14.23-10.257l20-60z" fill="#38336b"/><g><g><path d="m165 19.993v70.257h50c6.457 0 12.188-4.131 14.23-10.257l20-60z" fill="#2e2654"/></g></g><path d="m275 .25h-220c-30.327 0-55 24.673-55 55v402c0 30.327 24.673 55 55 55h220c30.327 0 55-24.673 55-55v-402c0-30.327-24.673-55-55-55zm-245 55c0-13.785 11.215-25 25-25h220c13.785 0 25 11.215 25 25v362h-270z" fill="#524798"/><g><path d="m275 .25h-110v30h110c13.785 0 25 11.215 25 25v362h-135v95h110c30.327 0 55-24.673 55-55v-402c0-30.327-24.673-55-55-55z" fill="#38336b"/></g><path d="m422 246.25v70c0 13.785-11.215 25-25 25h-192c-13.785 0-25-11.215-25-25v-40h-30v40c0 30.327 24.673 55 55 55h192c30.327 0 55-24.673 55-55v-70z" fill="#ffc178"/><path d="m437 261.25c-41.355 0-75-33.645-75-75s33.645-75 75-75 75 33.645 75 75-33.645 75-75 75z" fill="#f9f9f9" stroke="#f9f9f9" stroke-miterlimit="10"/><path d="m437 111.25v150c41.355 0 75-33.645 75-75s-33.645-75-75-75z" fill="#d8f1fb"/><circle cx="437" cy="186.25" fill="#d8f1fb" r="45"/><path d="m437 141.25v90c24.813 0 45-20.187 45-45s-20.187-45-45-45z" fill="#b1d5f1"/><circle cx="437" cy="186.25" fill="#acceff" r="15"/><path d="m165 291.25c-52.383 0-95-42.617-95-95v-60c0-8.284 6.716-15 15-15h30c8.284 0 15 6.716 15 15s-6.716 15-15 15h-15v45c0 35.841 29.159 65 65 65s65-29.159 65-65v-45h-15c-8.284 0-15-6.716-15-15s6.716-15 15-15h30c8.284 0 15 6.716 15 15v60c0 52.383-42.617 95-95 95z" fill="#989dec"/><path d="m260 196.25v-60c0-8.284-6.716-15-15-15h-30c-8.284 0-15 6.716-15 15s6.716 15 15 15h15v45c0 35.841-29.159 65-65 65v30c52.383 0 95-42.617 95-95z" fill="#6e75e2"/><path d="m437 171.25v30c8.284 0 15-6.716 15-15s-6.716-15-15-15z" fill="#989dec"/></g></svg>